# xmcd CD database file
#
# Track frame offsets:
#	150
#	16509
#	37356
#	48913
#	61901
#	78483
#	92654
#	114404
#	135550
#	144875
#	158415
#	178434
#	187870
#
# Disc length: 2633 seconds
#
# Revision: 0
# Processed by: cddbd v1.5.2PL0 Copyright (c) Steve Scherf et al.
# Submitted via: CDex 1.51
#
DISCID=9e0a470d
DTITLE=Beachwood Sparks - The Tarnished Gold
DYEAR=2012
DGENRE=Country
TTITLE0=Forget The Song
TTITLE1=Sparks Fly Again
TTITLE2=Mollusk
TTITLE3=Tarnished Gold
TTITLE4=Water From The Well
TTITLE5=Talk About Lonesome
TTITLE6=Leave That Light On
TTITLE7=Nature's Light
TTITLE8=No Queremos Oro
TTITLE9=Earl Jean
TTITLE10=Alone Together
TTITLE11=The Orange Grass Special
TTITLE12=Goodbye
EXTD=YEAR: 2012
EXTT0=
EXTT1=
EXTT2=
EXTT3=
EXTT4=
EXTT5=
EXTT6=
EXTT7=
EXTT8=
EXTT9=
EXTT10=
EXTT11=
EXTT12=
PLAYORDER=
